<svg width="30" height="30" viewBox="0 0 30 30" fill="none" xmlns="http://www.w3.org/2000/svg">
<path d="M15 0C6.72912 0 0 6.72912 0 15C0 23.2704 6.72912 30 15 30C23.2704 30 30 23.2705 30 15C30 6.72912 23.2716 0 15 0ZM9.7662 23.5319C7.94755 23.5319 6.46919 22.0535 6.46919 20.2342V13.2497V9.76691C6.46919 7.94826 7.94755 6.46972 9.7662 6.46972H20.2329C22.0514 6.46972 23.5306 7.94826 23.5306 9.76691V13.2495V20.234C23.5306 22.0533 22.0516 23.5317 20.2334 23.5317H9.7662V23.5319Z" fill="white"/>
</svg>
