<svg width="24" height="24" viewBox="0 0 24 24" fill="none" xmlns="http://www.w3.org/2000/svg">
<path d="M13.3263 11.9997L23.7254 1.60017C24.0915 1.23408 24.0915 0.640655 23.7254 0.274566C23.3593 -0.0915221 22.7654 -0.0915221 22.3994 0.274566L12.0002 10.6741L1.60065 0.274566C1.23456 -0.0915221 0.640658 -0.0915221 0.274568 0.274566C-0.0915225 0.640655 -0.0915225 1.23455 0.274568 1.60017L10.6746 11.9997L0.275036 22.3992C-0.0910538 22.7653 -0.0910538 23.3592 0.275036 23.7253C0.457847 23.9081 0.697845 24 0.937842 24C1.17784 24 1.41784 23.9086 1.60065 23.7253L12.0002 13.3258L22.3998 23.7253C22.5826 23.9081 22.8226 24 23.0626 24C23.3026 24 23.5426 23.9086 23.7254 23.7253C24.0915 23.3592 24.0915 22.7653 23.7254 22.3992L13.3263 11.9997Z" fill="white"/>
</svg>
