<svg width="30" height="30" viewBox="0 0 30 30" fill="none" xmlns="http://www.w3.org/2000/svg">
<path d="M15.0003 0C6.71593 0 0 6.71569 0 14.9997C0 23.2837 6.71593 29.9994 15.0003 29.9994C23.2847 29.9994 30 23.2837 30 14.9997C30 6.71569 23.2841 0 15.0003 0ZM10.8797 8.05979L11.6531 5.08743H12.7992L11.4356 9.59154V12.6574H10.3027V9.59154C10.1997 9.04838 9.97324 8.25223 9.60958 7.1965C9.37114 6.49447 9.12192 5.78945 8.88347 5.08743H10.0757L10.8797 8.05979ZM14.3179 12.7336C13.8087 12.7336 13.4103 12.5411 13.1275 12.1562C12.9106 11.8745 12.8076 11.4296 12.8076 10.8301V8.85474C12.8076 8.25163 12.91 7.811 13.1275 7.52623C13.4103 7.14015 13.8081 6.9477 14.3179 6.9477C14.8302 6.9477 15.2274 7.14075 15.5101 7.52623C15.7246 7.811 15.8271 8.25223 15.8271 8.85474V10.8301C15.8271 11.4302 15.7246 11.8745 15.5101 12.1562C15.228 12.5417 14.8302 12.7336 14.3179 12.7336ZM17.9395 11.8055C18.1438 11.8055 18.3583 11.6473 18.5853 11.3271V7.01605H19.6074V12.6568H18.5853V12.0417C18.1785 12.5081 17.7903 12.7342 17.4177 12.7342C17.0888 12.7342 16.8617 12.6011 16.7593 12.3157C16.7029 12.1442 16.6688 11.8751 16.6688 11.477V7.01665H17.6885V11.1694C17.6885 11.4092 17.6885 11.5333 17.7004 11.5669C17.722 11.7246 17.8029 11.8055 17.9395 11.8055ZM15.0027 13.2485C15.1393 13.2485 15.2765 13.2485 15.4137 13.2485C17.3691 13.2485 19.33 13.2641 21.2699 13.4805C22.1464 13.5783 22.8743 14.2347 23.0792 15.125C23.3703 16.3924 23.3685 17.776 23.3685 19.0812C23.3685 20.3863 23.3673 21.77 23.0756 23.0367C22.8707 23.9264 22.1428 24.5834 21.2669 24.6812C19.327 24.8976 17.3661 24.9126 15.4101 24.9126C15.2735 24.9126 15.1369 24.9126 14.9997 24.9126C14.8631 24.9126 14.7265 24.9126 14.5899 24.9126C12.6344 24.9126 10.673 24.8976 8.7331 24.6812C7.85721 24.5834 7.12871 23.927 6.92441 23.0367C6.63265 21.7694 6.63265 20.3857 6.63265 19.0812C6.63265 17.776 6.63625 16.3924 6.92741 15.125C7.1323 14.2347 7.85961 13.5783 8.7355 13.4805C10.6748 13.2641 12.6362 13.2485 14.5917 13.2485C14.7289 13.2485 14.8661 13.2485 15.0027 13.2485Z" fill="white"/>
</svg>
