<svg width="30" height="31" viewBox="0 0 30 31" fill="none" xmlns="http://www.w3.org/2000/svg">
<path d="M15.0001 0.319092C6.72923 0.319092 0 7.04827 0 15.319C0 23.5895 6.72923 30.3191 15.0001 30.3191C23.2706 30.3191 30.0002 23.5895 30.0002 15.319C30 7.04827 23.2716 0.319092 15.0001 0.319092ZM14.8731 12.7217C14.8139 12.4687 14.7846 12.2058 14.7846 11.9346C14.7846 10.0283 16.33 8.48198 18.2362 8.48198C19.2297 8.48198 20.1258 8.90151 20.7564 9.57213C21.5437 9.41746 22.2807 9.13095 22.9495 8.73406C22.6899 9.54084 22.1441 10.2168 21.4295 10.6448C22.1285 10.5611 22.7957 10.3766 23.4122 10.1015C22.9519 10.7925 22.3667 11.4008 21.6914 11.886C21.6981 12.0346 21.7018 12.1845 21.7018 12.3345C21.7018 16.8967 18.2299 22.1558 11.8779 22.1558C9.92818 22.1558 8.11299 21.5859 6.58549 20.606C6.85547 20.6381 7.13077 20.6542 7.40921 20.6542C9.02737 20.6542 10.5153 20.1022 11.6973 19.1766C10.1868 19.1487 8.91115 18.1504 8.47205 16.7783C8.68226 16.818 8.89935 16.8407 9.12097 16.8407C9.43579 16.8407 9.74156 16.7995 10.0308 16.7204C8.45141 16.4036 7.26173 15.0085 7.26173 13.3351L7.26232 13.2916C7.72738 13.5494 8.25988 13.7054 8.82542 13.7229C7.89963 13.1049 7.28985 12.0474 7.28985 10.8498C7.28985 10.2166 7.45995 9.62329 7.75687 9.11344C9.45958 11.2026 12.0043 12.5767 14.8731 12.7217Z" fill="white"/>
</svg>
